<svg xmlns="http://www.w3.org/2000/svg" viewBox="0 0 32 32" width="100%" height="100%" shape-rendering="crispEdges">
  <defs>
    <style>
      rect { shape-rendering: crispEdges; }
    </style>
  </defs>
  <!-- 32-bit Retro Arcade Badge Favicon — Ajay Kumar DRB -->
    <rect x="4" y="3" width="21" height="1" fill="#0f172a"/>
    <rect x="3" y="4" width="2" height="1" fill="#0f172a"/>
    <rect x="5" y="4" width="1" height="1" fill="#e11d48"/>
    <rect x="6" y="4" width="1" height="1" fill="#fbbf24"/>
    <rect x="7" y="4" width="15" height="1" fill="#e11d48"/>
    <rect x="22" y="4" width="1" height="1" fill="#00d26a"/>
    <rect x="23" y="4" width="1" height="1" fill="#e11d48"/>
    <rect x="24" y="4" width="2" height="1" fill="#0f172a"/>
    <rect x="3" y="5" width="1" height="1" fill="#0f172a"/>
    <rect x="4" y="5" width="1" height="1" fill="#e11d48"/>
    <rect x="5" y="5" width="1" height="1" fill="#fef08a"/>
    <rect x="6" y="5" width="15" height="1" fill="#fbbf24"/>
    <rect x="21" y="5" width="1" height="1" fill="#70ffaf"/>
    <rect x="22" y="5" width="1" height="1" fill="#00ff88"/>
    <rect x="23" y="5" width="1" height="1" fill="#70ffaf"/>
    <rect x="24" y="5" width="1" height="1" fill="#e11d48"/>
    <rect x="25" y="5" width="2" height="1" fill="#0f172a"/>
    <rect x="3" y="6" width="1" height="1" fill="#0f172a"/>
    <rect x="4" y="6" width="2" height="1" fill="#fbbf24"/>
    <rect x="6" y="6" width="14" height="1" fill="#e11d48"/>
    <rect x="20" y="6" width="1" height="1" fill="#00d26a"/>
    <rect x="21" y="6" width="1" height="1" fill="#00ff88"/>
    <rect x="22" y="6" width="1" height="1" fill="#ffffff"/>
    <rect x="23" y="6" width="1" height="1" fill="#00ff88"/>
    <rect x="24" y="6" width="1" height="1" fill="#00d26a"/>
    <rect x="25" y="6" width="3" height="1" fill="#0f172a"/>
    <rect x="3" y="7" width="1" height="1" fill="#0f172a"/>
    <rect x="4" y="7" width="1" height="1" fill="#e11d48"/>
    <rect x="5" y="7" width="1" height="1" fill="#fbbf24"/>
    <rect x="6" y="7" width="15" height="1" fill="#e11d48"/>
    <rect x="21" y="7" width="1" height="1" fill="#70ffaf"/>
    <rect x="22" y="7" width="1" height="1" fill="#00ff88"/>
    <rect x="23" y="7" width="1" height="1" fill="#70ffaf"/>
    <rect x="24" y="7" width="1" height="1" fill="#e11d48"/>
    <rect x="25" y="7" width="3" height="1" fill="#0f172a"/>
    <rect x="3" y="8" width="1" height="1" fill="#0f172a"/>
    <rect x="4" y="8" width="1" height="1" fill="#e11d48"/>
    <rect x="5" y="8" width="1" height="1" fill="#fbbf24"/>
    <rect x="6" y="8" width="16" height="1" fill="#e11d48"/>
    <rect x="22" y="8" width="1" height="1" fill="#00d26a"/>
    <rect x="23" y="8" width="1" height="1" fill="#9f1239"/>
    <rect x="24" y="8" width="1" height="1" fill="#e11d48"/>
    <rect x="25" y="8" width="3" height="1" fill="#0f172a"/>
    <rect x="3" y="9" width="1" height="1" fill="#0f172a"/>
    <rect x="4" y="9" width="1" height="1" fill="#e11d48"/>
    <rect x="5" y="9" width="1" height="1" fill="#fbbf24"/>
    <rect x="6" y="9" width="1" height="1" fill="#e11d48"/>
    <rect x="7" y="9" width="1" height="1" fill="#ffffff"/>
    <rect x="8" y="9" width="3" height="1" fill="#fef08a"/>
    <rect x="11" y="9" width="1" height="1" fill="#ffffff"/>
    <rect x="12" y="9" width="3" height="1" fill="#e11d48"/>
    <rect x="15" y="9" width="2" height="1" fill="#fef08a"/>
    <rect x="17" y="9" width="3" height="1" fill="#e11d48"/>
    <rect x="20" y="9" width="2" height="1" fill="#fef08a"/>
    <rect x="22" y="9" width="1" height="1" fill="#e11d48"/>
    <rect x="23" y="9" width="1" height="1" fill="#9f1239"/>
    <rect x="24" y="9" width="1" height="1" fill="#e11d48"/>
    <rect x="25" y="9" width="3" height="1" fill="#0f172a"/>
    <rect x="3" y="10" width="1" height="1" fill="#0f172a"/>
    <rect x="4" y="10" width="1" height="1" fill="#e11d48"/>
    <rect x="5" y="10" width="1" height="1" fill="#fbbf24"/>
    <rect x="6" y="10" width="7" height="1" fill="#ffffff"/>
    <rect x="13" y="10" width="2" height="1" fill="#e11d48"/>
    <rect x="15" y="10" width="2" height="1" fill="#ffffff"/>
    <rect x="17" y="10" width="1" height="1" fill="#0f172a"/>
    <rect x="18" y="10" width="2" height="1" fill="#e11d48"/>
    <rect x="20" y="10" width="2" height="1" fill="#ffffff"/>
    <rect x="22" y="10" width="1" height="1" fill="#0f172a"/>
    <rect x="23" y="10" width="1" height="1" fill="#9f1239"/>
    <rect x="24" y="10" width="1" height="1" fill="#e11d48"/>
    <rect x="25" y="10" width="3" height="1" fill="#0f172a"/>
    <rect x="3" y="11" width="1" height="1" fill="#0f172a"/>
    <rect x="4" y="11" width="1" height="1" fill="#e11d48"/>
    <rect x="5" y="11" width="1" height="1" fill="#fbbf24"/>
    <rect x="6" y="11" width="2" height="1" fill="#ffffff"/>
    <rect x="8" y="11" width="3" height="1" fill="#0f172a"/>
    <rect x="11" y="11" width="2" height="1" fill="#ffffff"/>
    <rect x="13" y="11" width="1" height="1" fill="#0f172a"/>
    <rect x="14" y="11" width="1" height="1" fill="#e11d48"/>
    <rect x="15" y="11" width="2" height="1" fill="#ffffff"/>
    <rect x="17" y="11" width="1" height="1" fill="#0f172a"/>
    <rect x="18" y="11" width="2" height="1" fill="#e11d48"/>
    <rect x="20" y="11" width="2" height="1" fill="#ffffff"/>
    <rect x="22" y="11" width="1" height="1" fill="#0f172a"/>
    <rect x="23" y="11" width="1" height="1" fill="#9f1239"/>
    <rect x="24" y="11" width="1" height="1" fill="#e11d48"/>
    <rect x="25" y="11" width="3" height="1" fill="#0f172a"/>
    <rect x="3" y="12" width="1" height="1" fill="#0f172a"/>
    <rect x="4" y="12" width="1" height="1" fill="#e11d48"/>
    <rect x="5" y="12" width="1" height="1" fill="#fbbf24"/>
    <rect x="6" y="12" width="2" height="1" fill="#ffffff"/>
    <rect x="8" y="12" width="1" height="1" fill="#0f172a"/>
    <rect x="9" y="12" width="2" height="1" fill="#e11d48"/>
    <rect x="11" y="12" width="2" height="1" fill="#ffffff"/>
    <rect x="13" y="12" width="1" height="1" fill="#0f172a"/>
    <rect x="14" y="12" width="1" height="1" fill="#e11d48"/>
    <rect x="15" y="12" width="2" height="1" fill="#ffffff"/>
    <rect x="17" y="12" width="1" height="1" fill="#0f172a"/>
    <rect x="18" y="12" width="2" height="1" fill="#ffffff"/>
    <rect x="20" y="12" width="1" height="1" fill="#e11d48"/>
    <rect x="21" y="12" width="2" height="1" fill="#0f172a"/>
    <rect x="23" y="12" width="1" height="1" fill="#9f1239"/>
    <rect x="24" y="12" width="1" height="1" fill="#e11d48"/>
    <rect x="25" y="12" width="3" height="1" fill="#0f172a"/>
    <rect x="3" y="13" width="1" height="1" fill="#0f172a"/>
    <rect x="4" y="13" width="1" height="1" fill="#e11d48"/>
    <rect x="5" y="13" width="1" height="1" fill="#fbbf24"/>
    <rect x="6" y="13" width="2" height="1" fill="#ffffff"/>
    <rect x="8" y="13" width="1" height="1" fill="#0f172a"/>
    <rect x="9" y="13" width="2" height="1" fill="#e11d48"/>
    <rect x="11" y="13" width="2" height="1" fill="#ffffff"/>
    <rect x="13" y="13" width="1" height="1" fill="#0f172a"/>
    <rect x="14" y="13" width="1" height="1" fill="#e11d48"/>
    <rect x="15" y="13" width="2" height="1" fill="#ffffff"/>
    <rect x="17" y="13" width="1" height="1" fill="#0f172a"/>
    <rect x="18" y="13" width="2" height="1" fill="#ffffff"/>
    <rect x="20" y="13" width="1" height="1" fill="#0f172a"/>
    <rect x="21" y="13" width="2" height="1" fill="#e11d48"/>
    <rect x="23" y="13" width="1" height="1" fill="#9f1239"/>
    <rect x="24" y="13" width="1" height="1" fill="#e11d48"/>
    <rect x="25" y="13" width="3" height="1" fill="#0f172a"/>
    <rect x="3" y="14" width="1" height="1" fill="#0f172a"/>
    <rect x="4" y="14" width="1" height="1" fill="#e11d48"/>
    <rect x="5" y="14" width="1" height="1" fill="#fbbf24"/>
    <rect x="6" y="14" width="2" height="1" fill="#ffffff"/>
    <rect x="8" y="14" width="1" height="1" fill="#0f172a"/>
    <rect x="9" y="14" width="2" height="1" fill="#e11d48"/>
    <rect x="11" y="14" width="2" height="1" fill="#ffffff"/>
    <rect x="13" y="14" width="1" height="1" fill="#0f172a"/>
    <rect x="14" y="14" width="1" height="1" fill="#e11d48"/>
    <rect x="15" y="14" width="5" height="1" fill="#ffffff"/>
    <rect x="20" y="14" width="1" height="1" fill="#0f172a"/>
    <rect x="21" y="14" width="2" height="1" fill="#e11d48"/>
    <rect x="23" y="14" width="1" height="1" fill="#9f1239"/>
    <rect x="24" y="14" width="1" height="1" fill="#e11d48"/>
    <rect x="25" y="14" width="3" height="1" fill="#0f172a"/>
    <rect x="3" y="15" width="1" height="1" fill="#0f172a"/>
    <rect x="4" y="15" width="1" height="1" fill="#e11d48"/>
    <rect x="5" y="15" width="1" height="1" fill="#fbbf24"/>
    <rect x="6" y="15" width="7" height="1" fill="#ffffff"/>
    <rect x="13" y="15" width="1" height="1" fill="#0f172a"/>
    <rect x="14" y="15" width="1" height="1" fill="#e11d48"/>
    <rect x="15" y="15" width="4" height="1" fill="#ffffff"/>
    <rect x="19" y="15" width="2" height="1" fill="#0f172a"/>
    <rect x="21" y="15" width="2" height="1" fill="#e11d48"/>
    <rect x="23" y="15" width="1" height="1" fill="#9f1239"/>
    <rect x="24" y="15" width="1" height="1" fill="#e11d48"/>
    <rect x="25" y="15" width="3" height="1" fill="#0f172a"/>
    <rect x="3" y="16" width="1" height="1" fill="#0f172a"/>
    <rect x="4" y="16" width="1" height="1" fill="#e11d48"/>
    <rect x="5" y="16" width="1" height="1" fill="#fbbf24"/>
    <rect x="6" y="16" width="7" height="1" fill="#ffffff"/>
    <rect x="13" y="16" width="1" height="1" fill="#0f172a"/>
    <rect x="14" y="16" width="1" height="1" fill="#e11d48"/>
    <rect x="15" y="16" width="2" height="1" fill="#ffffff"/>
    <rect x="17" y="16" width="1" height="1" fill="#0f172a"/>
    <rect x="18" y="16" width="2" height="1" fill="#ffffff"/>
    <rect x="20" y="16" width="3" height="1" fill="#e11d48"/>
    <rect x="23" y="16" width="1" height="1" fill="#9f1239"/>
    <rect x="24" y="16" width="1" height="1" fill="#e11d48"/>
    <rect x="25" y="16" width="3" height="1" fill="#0f172a"/>
    <rect x="3" y="17" width="1" height="1" fill="#0f172a"/>
    <rect x="4" y="17" width="1" height="1" fill="#e11d48"/>
    <rect x="5" y="17" width="1" height="1" fill="#fbbf24"/>
    <rect x="6" y="17" width="2" height="1" fill="#ffffff"/>
    <rect x="8" y="17" width="3" height="1" fill="#0f172a"/>
    <rect x="11" y="17" width="2" height="1" fill="#ffffff"/>
    <rect x="13" y="17" width="1" height="1" fill="#0f172a"/>
    <rect x="14" y="17" width="1" height="1" fill="#e11d48"/>
    <rect x="15" y="17" width="2" height="1" fill="#ffffff"/>
    <rect x="17" y="17" width="1" height="1" fill="#0f172a"/>
    <rect x="18" y="17" width="2" height="1" fill="#ffffff"/>
    <rect x="20" y="17" width="1" height="1" fill="#0f172a"/>
    <rect x="21" y="17" width="2" height="1" fill="#e11d48"/>
    <rect x="23" y="17" width="1" height="1" fill="#9f1239"/>
    <rect x="24" y="17" width="1" height="1" fill="#e11d48"/>
    <rect x="25" y="17" width="3" height="1" fill="#0f172a"/>
    <rect x="3" y="18" width="1" height="1" fill="#0f172a"/>
    <rect x="4" y="18" width="1" height="1" fill="#e11d48"/>
    <rect x="5" y="18" width="1" height="1" fill="#fbbf24"/>
    <rect x="6" y="18" width="2" height="1" fill="#ffffff"/>
    <rect x="8" y="18" width="1" height="1" fill="#0f172a"/>
    <rect x="9" y="18" width="2" height="1" fill="#e11d48"/>
    <rect x="11" y="18" width="2" height="1" fill="#ffffff"/>
    <rect x="13" y="18" width="1" height="1" fill="#0f172a"/>
    <rect x="14" y="18" width="1" height="1" fill="#e11d48"/>
    <rect x="15" y="18" width="2" height="1" fill="#ffffff"/>
    <rect x="17" y="18" width="1" height="1" fill="#0f172a"/>
    <rect x="18" y="18" width="2" height="1" fill="#ffffff"/>
    <rect x="20" y="18" width="1" height="1" fill="#0f172a"/>
    <rect x="21" y="18" width="2" height="1" fill="#e11d48"/>
    <rect x="23" y="18" width="1" height="1" fill="#9f1239"/>
    <rect x="24" y="18" width="1" height="1" fill="#e11d48"/>
    <rect x="25" y="18" width="3" height="1" fill="#0f172a"/>
    <rect x="3" y="19" width="1" height="1" fill="#0f172a"/>
    <rect x="4" y="19" width="1" height="1" fill="#e11d48"/>
    <rect x="5" y="19" width="1" height="1" fill="#fbbf24"/>
    <rect x="6" y="19" width="2" height="1" fill="#ffffff"/>
    <rect x="8" y="19" width="1" height="1" fill="#0f172a"/>
    <rect x="9" y="19" width="2" height="1" fill="#e11d48"/>
    <rect x="11" y="19" width="2" height="1" fill="#ffffff"/>
    <rect x="13" y="19" width="1" height="1" fill="#0f172a"/>
    <rect x="14" y="19" width="1" height="1" fill="#e11d48"/>
    <rect x="15" y="19" width="2" height="1" fill="#ffffff"/>
    <rect x="17" y="19" width="1" height="1" fill="#0f172a"/>
    <rect x="18" y="19" width="1" height="1" fill="#e11d48"/>
    <rect x="19" y="19" width="1" height="1" fill="#0f172a"/>
    <rect x="20" y="19" width="3" height="1" fill="#ffffff"/>
    <rect x="23" y="19" width="1" height="1" fill="#9f1239"/>
    <rect x="24" y="19" width="1" height="1" fill="#e11d48"/>
    <rect x="25" y="19" width="3" height="1" fill="#0f172a"/>
    <rect x="3" y="20" width="1" height="1" fill="#0f172a"/>
    <rect x="4" y="20" width="1" height="1" fill="#e11d48"/>
    <rect x="5" y="20" width="1" height="1" fill="#fbbf24"/>
    <rect x="6" y="20" width="2" height="1" fill="#ffffff"/>
    <rect x="8" y="20" width="1" height="1" fill="#0f172a"/>
    <rect x="9" y="20" width="2" height="1" fill="#e11d48"/>
    <rect x="11" y="20" width="2" height="1" fill="#ffffff"/>
    <rect x="13" y="20" width="1" height="1" fill="#0f172a"/>
    <rect x="14" y="20" width="1" height="1" fill="#e11d48"/>
    <rect x="15" y="20" width="2" height="1" fill="#ffffff"/>
    <rect x="17" y="20" width="1" height="1" fill="#0f172a"/>
    <rect x="18" y="20" width="2" height="1" fill="#e11d48"/>
    <rect x="20" y="20" width="3" height="1" fill="#ffffff"/>
    <rect x="23" y="20" width="1" height="1" fill="#0f172a"/>
    <rect x="24" y="20" width="1" height="1" fill="#e11d48"/>
    <rect x="25" y="20" width="3" height="1" fill="#0f172a"/>
    <rect x="3" y="21" width="1" height="1" fill="#0f172a"/>
    <rect x="4" y="21" width="1" height="1" fill="#e11d48"/>
    <rect x="5" y="21" width="1" height="1" fill="#fbbf24"/>
    <rect x="6" y="21" width="2" height="1" fill="#ffffff"/>
    <rect x="8" y="21" width="1" height="1" fill="#0f172a"/>
    <rect x="9" y="21" width="2" height="1" fill="#e11d48"/>
    <rect x="11" y="21" width="2" height="1" fill="#ffffff"/>
    <rect x="13" y="21" width="1" height="1" fill="#0f172a"/>
    <rect x="14" y="21" width="1" height="1" fill="#e11d48"/>
    <rect x="15" y="21" width="2" height="1" fill="#ffffff"/>
    <rect x="17" y="21" width="1" height="1" fill="#0f172a"/>
    <rect x="18" y="21" width="2" height="1" fill="#e11d48"/>
    <rect x="20" y="21" width="1" height="1" fill="#ffffff"/>
    <rect x="21" y="21" width="2" height="1" fill="#fef08a"/>
    <rect x="23" y="21" width="1" height="1" fill="#0f172a"/>
    <rect x="24" y="21" width="1" height="1" fill="#e11d48"/>
    <rect x="25" y="21" width="3" height="1" fill="#0f172a"/>
    <rect x="3" y="22" width="1" height="1" fill="#0f172a"/>
    <rect x="4" y="22" width="1" height="1" fill="#e11d48"/>
    <rect x="5" y="22" width="1" height="1" fill="#fbbf24"/>
    <rect x="6" y="22" width="1" height="1" fill="#e11d48"/>
    <rect x="7" y="22" width="2" height="1" fill="#0f172a"/>
    <rect x="9" y="22" width="3" height="1" fill="#e11d48"/>
    <rect x="12" y="22" width="2" height="1" fill="#0f172a"/>
    <rect x="14" y="22" width="2" height="1" fill="#e11d48"/>
    <rect x="16" y="22" width="2" height="1" fill="#0f172a"/>
    <rect x="18" y="22" width="3" height="1" fill="#e11d48"/>
    <rect x="21" y="22" width="3" height="1" fill="#0f172a"/>
    <rect x="24" y="22" width="1" height="1" fill="#e11d48"/>
    <rect x="25" y="22" width="3" height="1" fill="#0f172a"/>
    <rect x="3" y="23" width="1" height="1" fill="#0f172a"/>
    <rect x="4" y="23" width="1" height="1" fill="#e11d48"/>
    <rect x="5" y="23" width="1" height="1" fill="#0f172a"/>
    <rect x="6" y="23" width="17" height="1" fill="#9f1239"/>
    <rect x="23" y="23" width="1" height="1" fill="#0f172a"/>
    <rect x="24" y="23" width="1" height="1" fill="#9f1239"/>
    <rect x="25" y="23" width="3" height="1" fill="#0f172a"/>
    <rect x="3" y="24" width="1" height="1" fill="#0f172a"/>
    <rect x="4" y="24" width="21" height="1" fill="#e11d48"/>
    <rect x="25" y="24" width="3" height="1" fill="#0f172a"/>
    <rect x="3" y="25" width="2" height="1" fill="#0f172a"/>
    <rect x="5" y="25" width="19" height="1" fill="#e11d48"/>
    <rect x="24" y="25" width="4" height="1" fill="#0f172a"/>
    <rect x="4" y="26" width="24" height="1" fill="#0f172a"/>
    <rect x="5" y="27" width="23" height="1" fill="#0f172a"/>
    <rect x="6" y="28" width="21" height="1" fill="#0f172a"/>
</svg>